<?xml version="1.0" encoding="UTF-8" standalone="no"?>
<!-- Created with Inkscape (http://www.inkscape.org/) -->

<svg
   width="117.32506mm"
   height="118.06441mm"
   viewBox="0 0 117.32506 118.06441"
   version="1.1"
   id="svg1"
   xmlns:xlink="http://www.w3.org/1999/xlink"
   xmlns="http://www.w3.org/2000/svg"
   xmlns:svg="http://www.w3.org/2000/svg">
  <defs
     id="defs1">
    <linearGradient
       id="linearGradient18">
      <stop
         style="stop-color:#f15e08;stop-opacity:0.882006;"
         offset="0"
         id="stop18" />
      <stop
         style="stop-color:#f108d4;stop-opacity:0.35294119;"
         offset="0.60805368"
         id="stop20" />
      <stop
         style="stop-color:#f15e08;stop-opacity:0;"
         offset="1"
         id="stop19" />
    </linearGradient>
    <linearGradient
       id="swatch2">
      <stop
         style="stop-color:#d81c1c;stop-opacity:1;"
         offset="0"
         id="stop2" />
    </linearGradient>
    <linearGradient
       xlink:href="#linearGradient18"
       id="linearGradient19"
       x1="185.06641"
       y1="23.18594"
       x2="248.27551"
       y2="86.947098"
       gradientUnits="userSpaceOnUse" />
  </defs>
  <g
     id="layer1"
     transform="translate(-12.13889,-7.4445677)">
    <path
       style="fill:url(#linearGradient19);fill-opacity:1;fill-rule:nonzero;stroke-width:0.264999;stroke-dasharray:none"
       id="rect6-1"
       width="24"
       height="24"
       x="172.34149"
       y="10.409453"
       ry="9.5636854"
       transform="matrix(0.94280902,0.94280902,-0.94280902,0.94280902,-81.869561,-170.12495)"
       d="m 181.90518,10.409453 h 4.87263 c 5.29828,0 9.56368,4.265404 9.56368,9.563686 v 4.872629 c 0,5.298282 -4.2654,9.563685 -9.56368,9.563685 h -4.87263 c -5.29828,0 -9.56369,-4.265403 -9.56369,-9.563685 v -4.872629 c 0,-5.298282 4.26541,-9.563686 9.56369,-9.563686 z m 26.07476,2.4 h 3.8981 c 4.23863,0 7.65095,3.412323 7.65095,7.650949 v 3.898103 c 0,4.238625 -3.41232,7.650948 -7.65095,7.650948 h -3.8981 c -4.23863,0 -7.65095,-3.412323 -7.65095,-7.650948 v -3.898103 c 0,-4.238626 3.41232,-7.650949 7.65095,-7.650949 z m 26.07476,2.4 h 2.92358 c 3.17897,0 5.73821,2.559243 5.73821,5.738212 v 2.923577 c 0,3.178969 -2.55924,5.738211 -5.73821,5.738211 h -2.92358 c -3.17897,0 -5.73821,-2.559242 -5.73821,-5.738211 v -2.923577 c 0,-3.178969 2.55924,-5.738212 5.73821,-5.738212 z m -51.66226,23.1875 h 3.8981 c 4.23863,0 7.65095,3.412323 7.65095,7.650949 v 3.898103 c 0,4.238626 -3.41232,7.650948 -7.65095,7.650948 h -3.8981 c -4.23863,0 -7.65095,-3.412322 -7.65095,-7.650948 v -3.898103 c 0,-4.238626 3.41232,-7.650949 7.65095,-7.650949 z m 26.07476,2.4 h 2.92358 c 3.17897,0 5.73821,2.559243 5.73821,5.738212 v 2.923577 c 0,3.178969 -2.55924,5.738211 -5.73821,5.738211 h -2.92358 c -3.17897,0 -5.73821,-2.559242 -5.73821,-5.738211 v -2.923577 c 0,-3.178969 2.55924,-5.738212 5.73821,-5.738212 z m 26.07477,2.4 h 1.94905 c 2.11931,0 3.82547,1.706162 3.82547,3.825475 v 1.949051 c 0,2.119313 -1.70616,3.825474 -3.82547,3.825474 h -1.94905 c -2.11932,0 -3.82548,-1.706161 -3.82548,-3.825474 v -1.949051 c 0,-2.119313 1.70616,-3.825475 3.82548,-3.825475 z M 182.8797,66.384454 h 2.92358 c 3.17897,0 5.73821,2.559242 5.73821,5.738211 v 2.923577 c 0,3.178969 -2.55924,5.738212 -5.73821,5.738212 h -2.92358 c -3.17897,0 -5.73821,-2.559243 -5.73821,-5.738212 v -2.923577 c 0,-3.178969 2.55924,-5.738211 5.73821,-5.738211 z m 26.07477,2.4 h 1.94905 c 2.11931,0 3.82547,1.706161 3.82547,3.825474 v 1.949051 c 0,2.119313 -1.70616,3.825475 -3.82547,3.825475 h -1.94905 c -2.11932,0 -3.82548,-1.706162 -3.82548,-3.825475 v -1.949051 c 0,-2.119313 1.70616,-3.825474 3.82548,-3.825474 z m 26.07476,2.4 h 0.97452 c 1.05966,0 1.91274,0.85308 1.91274,1.912737 v 0.974525 c 0,1.059657 -0.85308,1.912738 -1.91274,1.912738 h -0.97452 c -1.05966,0 -1.91274,-0.853081 -1.91274,-1.912738 v -0.974525 c 0,-1.059657 0.85308,-1.912737 1.91274,-1.912737 z" />
  </g>
  <rect
     style="opacity:0.4625;fill:#800000;fill-opacity:0;stroke-width:0.228373"
     id="rect1"
     width="48.817837"
     height="39.463997"
     x="5.8945656"
     y="78.60041"
     ry="2.0554161" />
</svg>
